<?xml version="1.0" ?>
<svg style="enable-background:new 0 0 100 100;"
    version="1.1"
    viewBox="0 0 100 100"
    xmlns="http://www.w3.org/2000/svg"
    xml:space="preserve"><style type="text/css">
	.st0{display:none;}
	.st1{display:inline;fill:none;}
</style>
    <g
        class="st0"
        id="bounding_squares"><rect class="st1" height="100" id="XMLID_38_" width="100"/></g>
    <g id="icons"><path d="M58.25,28.125V9.375c0-1.1044922-0.8955078-2-2-2c-0.4219971,0-0.8122559,0.1322632-1.1349487,0.3554688   C55.116272,7.5940552,55.125,7.4588623,55.125,7.3222656V6.25c0-1.1044922-0.8955078-2-2-2s-2,0.8955078-2,2v1.0722656   c0,10.2263794-3.7507935,19.875-10.5971069,27.3808594c-0.0026245-0.0029907-0.005188-0.0060425-0.0078125-0.0090942   C41.8403931,32.8363037,42.625,30.5726929,42.625,28.125c0-6.2724609-5.1025391-11.375-11.375-11.375   s-11.375,5.1025391-11.375,11.375S24.9775391,39.5,31.25,39.5c2.3797607,0,4.5890503-0.7371826,6.4172363-1.991394   C42.3268433,42.9398804,44.875,49.7758179,44.875,57.0078125v21.6533203c0,5.1660156-2.0117188,10.0224609-5.6640625,13.6748047   c-0.78125,0.78125-0.78125,2.046875,0,2.828125C39.6015625,95.5546875,40.1132813,95.75,40.625,95.75   s1.0234375-0.1953125,1.4140625-0.5859375C46.4472656,90.7558594,48.875,84.8955078,48.875,78.6611328V67.996582   c3.4888306,4.9926758,5.375,10.9176636,5.375,17.1362305V96.875c0,1.1044922,0.8955078,2,2,2s2-0.8955078,2-2V85.1328125   c0-8.7997437-3.3278198-17.0830078-9.375-23.4317627v-4.6932373c0-5.3409424-1.2316284-10.4896851-3.5449219-15.1347656   l12.3339844-12.3339844C58.0390625,29.1640625,58.25,28.6552734,58.25,28.125z M23.875,28.125   c0-4.0664063,3.3085938-7.375,7.375-7.375s7.375,3.3085938,7.375,7.375S35.3164063,35.5,31.25,35.5   S23.875,32.1914063,23.875,28.125z M43.2642822,38.2825928c-0.0849609-0.1282959-0.1730957-0.2546997-0.2599487-0.381958   c5.7672729-6.1314087,9.62323-13.6114502,11.2456665-21.7185669V27.296875L43.2642822,38.2825928z"/></g></svg>